<mxfile host="app.diagrams.net" modified="2022-08-31T13:01:41.136Z" agent="5.0 (Macintosh; Intel Mac OS X 10_15_7) AppleWebKit/537.36 (KHTML, like Gecko) Chrome/104.0.0.0 Safari/537.36" etag="J6Aq0ddnNa3NdiMJxvtX" version="20.2.7" type="github">
  <diagram id="TPkWBkkPr3sC8qgod_-h" name="Page-1">
    <mxGraphModel dx="946" dy="646" grid="1" gridSize="10" guides="1" tooltips="1" connect="1" arrows="1" fold="1" page="1" pageScale="1" pageWidth="827" pageHeight="1169" math="0" shadow="0">
      <root>
        <mxCell id="0" />
        <mxCell id="1" parent="0" />
        <mxCell id="ejZkZxFSIaHYo-s1-91F-4" value="&lt;span style=&quot;font-size: 10px ; font-weight: bold&quot;&gt;Amazon&lt;br&gt;CloudWatch&lt;/span&gt;" style="sketch=0;points=[[0,0,0],[0.25,0,0],[0.5,0,0],[0.75,0,0],[1,0,0],[0,1,0],[0.25,1,0],[0.5,1,0],[0.75,1,0],[1,1,0],[0,0.25,0],[0,0.5,0],[0,0.75,0],[1,0.25,0],[1,0.5,0],[1,0.75,0]];points=[[0,0,0],[0.25,0,0],[0.5,0,0],[0.75,0,0],[1,0,0],[0,1,0],[0.25,1,0],[0.5,1,0],[0.75,1,0],[1,1,0],[0,0.25,0],[0,0.5,0],[0,0.75,0],[1,0.25,0],[1,0.5,0],[1,0.75,0]];outlineConnect=0;fontColor=#232F3E;gradientColor=#F34482;gradientDirection=north;fillColor=#BC1356;strokeColor=#ffffff;dashed=0;verticalLabelPosition=bottom;verticalAlign=top;align=center;html=1;fontSize=12;fontStyle=0;aspect=fixed;shape=mxgraph.aws4.resourceIcon;resIcon=mxgraph.aws4.cloudwatch_2;" parent="1" vertex="1">
          <mxGeometry y="240" width="78" height="78" as="geometry" />
        </mxCell>
        <mxCell id="ejZkZxFSIaHYo-s1-91F-5" value="&lt;span style=&quot;font-weight: bold&quot;&gt;&lt;font size=&quot;1&quot;&gt;AWS Lambda&lt;/font&gt;&lt;br&gt;&lt;u&gt;&lt;font style=&quot;font-size: 13px&quot;&gt;llnow-fetch-weets&lt;/font&gt;&lt;/u&gt;&lt;br&gt;&lt;/span&gt;" style="sketch=0;points=[[0,0,0],[0.25,0,0],[0.5,0,0],[0.75,0,0],[1,0,0],[0,1,0],[0.25,1,0],[0.5,1,0],[0.75,1,0],[1,1,0],[0,0.25,0],[0,0.5,0],[0,0.75,0],[1,0.25,0],[1,0.5,0],[1,0.75,0]];outlineConnect=0;fontColor=#232F3E;gradientColor=#F78E04;gradientDirection=north;fillColor=#D05C17;strokeColor=#ffffff;dashed=0;verticalLabelPosition=bottom;verticalAlign=top;align=center;html=1;fontSize=12;fontStyle=0;aspect=fixed;shape=mxgraph.aws4.resourceIcon;resIcon=mxgraph.aws4.lambda;" parent="1" vertex="1">
          <mxGeometry x="160" y="240" width="78" height="78" as="geometry" />
        </mxCell>
        <mxCell id="ejZkZxFSIaHYo-s1-91F-6" value="&lt;span style=&quot;font-size: 10px ; font-weight: bold&quot;&gt;AWS Lambda&lt;br&gt;&lt;/span&gt;&lt;span style=&quot;font-weight: bold&quot;&gt;&lt;font size=&quot;2&quot;&gt;&lt;u&gt;llnow-extract-words&lt;/u&gt;&lt;/font&gt;&lt;br&gt;&lt;/span&gt;" style="sketch=0;points=[[0,0,0],[0.25,0,0],[0.5,0,0],[0.75,0,0],[1,0,0],[0,1,0],[0.25,1,0],[0.5,1,0],[0.75,1,0],[1,1,0],[0,0.25,0],[0,0.5,0],[0,0.75,0],[1,0.25,0],[1,0.5,0],[1,0.75,0]];outlineConnect=0;fontColor=#232F3E;gradientColor=#F78E04;gradientDirection=north;fillColor=#D05C17;strokeColor=#ffffff;dashed=0;verticalLabelPosition=bottom;verticalAlign=top;align=center;html=1;fontSize=12;fontStyle=0;aspect=fixed;shape=mxgraph.aws4.resourceIcon;resIcon=mxgraph.aws4.lambda;" parent="1" vertex="1">
          <mxGeometry x="300" y="240" width="78" height="78" as="geometry" />
        </mxCell>
        <mxCell id="ejZkZxFSIaHYo-s1-91F-7" value="&lt;span style=&quot;font-size: 10px ; font-weight: bold&quot;&gt;AWS Lambda&lt;br&gt;&lt;/span&gt;&lt;span style=&quot;font-weight: bold&quot;&gt;&lt;font size=&quot;2&quot;&gt;&lt;u&gt;llnow-generate-image&lt;/u&gt;&lt;/font&gt;&lt;br&gt;&lt;/span&gt;" style="sketch=0;points=[[0,0,0],[0.25,0,0],[0.5,0,0],[0.75,0,0],[1,0,0],[0,1,0],[0.25,1,0],[0.5,1,0],[0.75,1,0],[1,1,0],[0,0.25,0],[0,0.5,0],[0,0.75,0],[1,0.25,0],[1,0.5,0],[1,0.75,0]];outlineConnect=0;fontColor=#232F3E;gradientColor=#F78E04;gradientDirection=north;fillColor=#D05C17;strokeColor=#ffffff;dashed=0;verticalLabelPosition=bottom;verticalAlign=top;align=center;html=1;fontSize=12;fontStyle=0;aspect=fixed;shape=mxgraph.aws4.resourceIcon;resIcon=mxgraph.aws4.lambda;" parent="1" vertex="1">
          <mxGeometry x="440" y="240" width="78" height="78" as="geometry" />
        </mxCell>
        <mxCell id="ejZkZxFSIaHYo-s1-91F-8" value="&lt;span style=&quot;font-size: 10px ; font-weight: bold&quot;&gt;AWS Lambda&lt;br&gt;&lt;/span&gt;&lt;span style=&quot;font-weight: bold&quot;&gt;&lt;font size=&quot;2&quot;&gt;&lt;u&gt;llnow-post-tweet&lt;/u&gt;&lt;/font&gt;&lt;br&gt;&lt;/span&gt;" style="sketch=0;points=[[0,0,0],[0.25,0,0],[0.5,0,0],[0.75,0,0],[1,0,0],[0,1,0],[0.25,1,0],[0.5,1,0],[0.75,1,0],[1,1,0],[0,0.25,0],[0,0.5,0],[0,0.75,0],[1,0.25,0],[1,0.5,0],[1,0.75,0]];outlineConnect=0;fontColor=#232F3E;gradientColor=#F78E04;gradientDirection=north;fillColor=#D05C17;strokeColor=#ffffff;dashed=0;verticalLabelPosition=bottom;verticalAlign=top;align=center;html=1;fontSize=12;fontStyle=0;aspect=fixed;shape=mxgraph.aws4.resourceIcon;resIcon=mxgraph.aws4.lambda;" parent="1" vertex="1">
          <mxGeometry x="580" y="240" width="78" height="78" as="geometry" />
        </mxCell>
        <mxCell id="ejZkZxFSIaHYo-s1-91F-9" value="Invoke" style="endArrow=classic;html=1;rounded=0;exitX=1;exitY=0.5;exitDx=0;exitDy=0;exitPerimeter=0;entryX=0;entryY=0.5;entryDx=0;entryDy=0;entryPerimeter=0;" parent="1" source="ejZkZxFSIaHYo-s1-91F-4" target="ejZkZxFSIaHYo-s1-91F-5" edge="1">
          <mxGeometry width="50" height="50" relative="1" as="geometry">
            <mxPoint x="320" y="310" as="sourcePoint" />
            <mxPoint x="370" y="260" as="targetPoint" />
          </mxGeometry>
        </mxCell>
        <mxCell id="1t7daK_UFqq9o-xPXAbw-1" value="&lt;span style=&quot;font-size: 10px ; font-weight: bold ; background-color: rgb(255 , 255 , 255)&quot;&gt;Amazon S3&lt;/span&gt;" style="sketch=0;points=[[0,0,0],[0.25,0,0],[0.5,0,0],[0.75,0,0],[1,0,0],[0,1,0],[0.25,1,0],[0.5,1,0],[0.75,1,0],[1,1,0],[0,0.25,0],[0,0.5,0],[0,0.75,0],[1,0.25,0],[1,0.5,0],[1,0.75,0]];outlineConnect=0;fontColor=#232F3E;gradientColor=#60A337;gradientDirection=north;fillColor=#277116;strokeColor=#ffffff;dashed=0;verticalLabelPosition=bottom;verticalAlign=top;align=center;html=1;fontSize=12;fontStyle=0;aspect=fixed;shape=mxgraph.aws4.resourceIcon;resIcon=mxgraph.aws4.s3;" parent="1" vertex="1">
          <mxGeometry x="230" y="20" width="78" height="78" as="geometry" />
        </mxCell>
        <mxCell id="1t7daK_UFqq9o-xPXAbw-2" value="&lt;span style=&quot;font-size: 10px ; font-weight: bold ; background-color: rgb(255 , 255 , 255)&quot;&gt;Amazon S3&lt;/span&gt;" style="sketch=0;points=[[0,0,0],[0.25,0,0],[0.5,0,0],[0.75,0,0],[1,0,0],[0,1,0],[0.25,1,0],[0.5,1,0],[0.75,1,0],[1,1,0],[0,0.25,0],[0,0.5,0],[0,0.75,0],[1,0.25,0],[1,0.5,0],[1,0.75,0]];outlineConnect=0;fontColor=#232F3E;gradientColor=#60A337;gradientDirection=north;fillColor=#277116;strokeColor=#ffffff;dashed=0;verticalLabelPosition=bottom;verticalAlign=top;align=center;html=1;fontSize=12;fontStyle=0;aspect=fixed;shape=mxgraph.aws4.resourceIcon;resIcon=mxgraph.aws4.s3;" parent="1" vertex="1">
          <mxGeometry x="375" y="20" width="78" height="78" as="geometry" />
        </mxCell>
        <mxCell id="1t7daK_UFqq9o-xPXAbw-3" value="&lt;span style=&quot;font-size: 10px ; font-weight: bold ; background-color: rgb(255 , 255 , 255)&quot;&gt;Amazon S3&lt;/span&gt;" style="sketch=0;points=[[0,0,0],[0.25,0,0],[0.5,0,0],[0.75,0,0],[1,0,0],[0,1,0],[0.25,1,0],[0.5,1,0],[0.75,1,0],[1,1,0],[0,0.25,0],[0,0.5,0],[0,0.75,0],[1,0.25,0],[1,0.5,0],[1,0.75,0]];outlineConnect=0;fontColor=#232F3E;gradientColor=#60A337;gradientDirection=north;fillColor=#277116;strokeColor=#ffffff;dashed=0;verticalLabelPosition=bottom;verticalAlign=top;align=center;html=1;fontSize=12;fontStyle=0;aspect=fixed;shape=mxgraph.aws4.resourceIcon;resIcon=mxgraph.aws4.s3;" parent="1" vertex="1">
          <mxGeometry x="510" y="20" width="78" height="78" as="geometry" />
        </mxCell>
        <mxCell id="1t7daK_UFqq9o-xPXAbw-5" value="Twitter API" style="shape=image;html=1;verticalAlign=top;verticalLabelPosition=bottom;labelBackgroundColor=#ffffff;imageAspect=0;aspect=fixed;image=https://cdn2.iconfinder.com/data/icons/social-media-2285/512/1_Twitter3_colored_svg-128.png" parent="1" vertex="1">
          <mxGeometry x="40" y="80" width="98" height="98" as="geometry" />
        </mxCell>
        <mxCell id="1t7daK_UFqq9o-xPXAbw-6" value="Fetch Tweets" style="endArrow=classic;html=1;rounded=0;exitX=1;exitY=1;exitDx=0;exitDy=0;entryX=0.5;entryY=0;entryDx=0;entryDy=0;entryPerimeter=0;" parent="1" source="1t7daK_UFqq9o-xPXAbw-5" target="ejZkZxFSIaHYo-s1-91F-5" edge="1">
          <mxGeometry width="50" height="50" relative="1" as="geometry">
            <mxPoint x="390" y="320" as="sourcePoint" />
            <mxPoint x="440" y="270" as="targetPoint" />
          </mxGeometry>
        </mxCell>
        <mxCell id="1t7daK_UFqq9o-xPXAbw-10" value="Words" style="shape=image;html=1;verticalAlign=top;verticalLabelPosition=bottom;labelBackgroundColor=#ffffff;imageAspect=0;aspect=fixed;image=https://cdn4.iconfinder.com/data/icons/48-bubbles/48/12.File-128.png" parent="1" vertex="1">
          <mxGeometry x="386" y="122" width="58" height="58" as="geometry" />
        </mxCell>
        <mxCell id="1t7daK_UFqq9o-xPXAbw-13" value="WordCloud" style="shape=image;html=1;verticalAlign=top;verticalLabelPosition=bottom;labelBackgroundColor=#ffffff;imageAspect=0;aspect=fixed;image=https://cdn4.iconfinder.com/data/icons/ionicons/512/icon-image-128.png" parent="1" vertex="1">
          <mxGeometry x="523.5" y="125.5" width="51" height="51" as="geometry" />
        </mxCell>
        <mxCell id="1t7daK_UFqq9o-xPXAbw-14" value="Tweets" style="dashed=0;outlineConnect=0;html=1;align=center;labelPosition=center;verticalLabelPosition=bottom;verticalAlign=top;shape=mxgraph.weblogos.json" parent="1" vertex="1">
          <mxGeometry x="244.5" y="122" width="49" height="53.06" as="geometry" />
        </mxCell>
        <mxCell id="1t7daK_UFqq9o-xPXAbw-15" value="" style="endArrow=classic;html=1;rounded=0;exitX=0.5;exitY=0;exitDx=0;exitDy=0;exitPerimeter=0;" parent="1" source="ejZkZxFSIaHYo-s1-91F-5" edge="1">
          <mxGeometry width="50" height="50" relative="1" as="geometry">
            <mxPoint x="390" y="320" as="sourcePoint" />
            <mxPoint x="240" y="149" as="targetPoint" />
          </mxGeometry>
        </mxCell>
        <mxCell id="1t7daK_UFqq9o-xPXAbw-16" value="" style="endArrow=classic;html=1;rounded=0;entryX=0.5;entryY=0;entryDx=0;entryDy=0;entryPerimeter=0;" parent="1" target="ejZkZxFSIaHYo-s1-91F-6" edge="1">
          <mxGeometry width="50" height="50" relative="1" as="geometry">
            <mxPoint x="300" y="149" as="sourcePoint" />
            <mxPoint x="440" y="270" as="targetPoint" />
          </mxGeometry>
        </mxCell>
        <mxCell id="1t7daK_UFqq9o-xPXAbw-17" value="" style="endArrow=classic;html=1;rounded=0;exitX=0.5;exitY=0;exitDx=0;exitDy=0;exitPerimeter=0;entryX=0;entryY=0.5;entryDx=0;entryDy=0;" parent="1" source="ejZkZxFSIaHYo-s1-91F-6" target="1t7daK_UFqq9o-xPXAbw-10" edge="1">
          <mxGeometry width="50" height="50" relative="1" as="geometry">
            <mxPoint x="390" y="320" as="sourcePoint" />
            <mxPoint x="440" y="270" as="targetPoint" />
          </mxGeometry>
        </mxCell>
        <mxCell id="1t7daK_UFqq9o-xPXAbw-18" value="" style="endArrow=classic;html=1;rounded=0;exitX=1;exitY=0.5;exitDx=0;exitDy=0;entryX=0.5;entryY=0;entryDx=0;entryDy=0;entryPerimeter=0;" parent="1" source="1t7daK_UFqq9o-xPXAbw-10" target="ejZkZxFSIaHYo-s1-91F-7" edge="1">
          <mxGeometry width="50" height="50" relative="1" as="geometry">
            <mxPoint x="390" y="320" as="sourcePoint" />
            <mxPoint x="440" y="270" as="targetPoint" />
          </mxGeometry>
        </mxCell>
        <mxCell id="1t7daK_UFqq9o-xPXAbw-19" value="" style="endArrow=classic;html=1;rounded=0;exitX=0.5;exitY=0;exitDx=0;exitDy=0;exitPerimeter=0;entryX=0;entryY=0.5;entryDx=0;entryDy=0;" parent="1" source="ejZkZxFSIaHYo-s1-91F-7" target="1t7daK_UFqq9o-xPXAbw-13" edge="1">
          <mxGeometry width="50" height="50" relative="1" as="geometry">
            <mxPoint x="390" y="320" as="sourcePoint" />
            <mxPoint x="440" y="270" as="targetPoint" />
          </mxGeometry>
        </mxCell>
        <mxCell id="1t7daK_UFqq9o-xPXAbw-20" value="" style="endArrow=classic;html=1;rounded=0;entryX=0.5;entryY=0;entryDx=0;entryDy=0;entryPerimeter=0;exitX=1;exitY=0.5;exitDx=0;exitDy=0;" parent="1" source="1t7daK_UFqq9o-xPXAbw-13" target="ejZkZxFSIaHYo-s1-91F-8" edge="1">
          <mxGeometry width="50" height="50" relative="1" as="geometry">
            <mxPoint x="390" y="320" as="sourcePoint" />
            <mxPoint x="440" y="270" as="targetPoint" />
          </mxGeometry>
        </mxCell>
        <mxCell id="1t7daK_UFqq9o-xPXAbw-24" value="Tweet" style="endArrow=classic;html=1;rounded=0;exitX=1;exitY=0.5;exitDx=0;exitDy=0;exitPerimeter=0;" parent="1" source="ejZkZxFSIaHYo-s1-91F-8" target="1t7daK_UFqq9o-xPXAbw-45" edge="1">
          <mxGeometry width="50" height="50" relative="1" as="geometry">
            <mxPoint x="480" y="310" as="sourcePoint" />
            <mxPoint x="770" y="310" as="targetPoint" />
          </mxGeometry>
        </mxCell>
        <mxCell id="1t7daK_UFqq9o-xPXAbw-45" value="@LLNow_jp" style="dashed=0;outlineConnect=0;html=1;align=center;labelPosition=center;verticalLabelPosition=bottom;verticalAlign=top;shape=mxgraph.weblogos.twitter;fillColor=#1DA1F2;strokeColor=none;labelBackgroundColor=#FFFFFF;" parent="1" vertex="1">
          <mxGeometry x="710" y="50" width="90" height="78.75" as="geometry" />
        </mxCell>
        <mxCell id="1t7daK_UFqq9o-xPXAbw-50" value="" style="group" parent="1" vertex="1" connectable="0">
          <mxGeometry x="140" y="430" width="540" height="140" as="geometry" />
        </mxCell>
        <mxCell id="1t7daK_UFqq9o-xPXAbw-47" value="" style="rounded=1;whiteSpace=wrap;html=1;labelBackgroundColor=#FFFFFF;" parent="1t7daK_UFqq9o-xPXAbw-50" vertex="1">
          <mxGeometry width="540" height="140" as="geometry" />
        </mxCell>
        <mxCell id="1t7daK_UFqq9o-xPXAbw-25" value="&lt;b style=&quot;font-size: 10px&quot;&gt;&lt;span style=&quot;background-color: rgb(255 , 255 , 255)&quot;&gt;Parameter&lt;/span&gt;&lt;br style=&quot;background-color: rgb(255 , 255 , 255)&quot;&gt;&lt;span style=&quot;background-color: rgb(255 , 255 , 255)&quot;&gt;Store&lt;/span&gt;&lt;/b&gt;" style="sketch=0;outlineConnect=0;fontColor=#232F3E;gradientColor=none;fillColor=#B0084D;strokeColor=none;dashed=0;verticalLabelPosition=bottom;verticalAlign=top;align=center;html=1;fontSize=12;fontStyle=0;aspect=fixed;pointerEvents=1;shape=mxgraph.aws4.parameter_store;" parent="1t7daK_UFqq9o-xPXAbw-50" vertex="1">
          <mxGeometry x="166.8714011516315" y="20" width="75" height="78" as="geometry" />
        </mxCell>
        <mxCell id="1t7daK_UFqq9o-xPXAbw-41" value="&lt;span style=&quot;font-size: 10px ; font-weight: bold&quot;&gt;Amazon&lt;br&gt;DynamoDB&lt;/span&gt;" style="sketch=0;points=[[0,0,0],[0.25,0,0],[0.5,0,0],[0.75,0,0],[1,0,0],[0,1,0],[0.25,1,0],[0.5,1,0],[0.75,1,0],[1,1,0],[0,0.25,0],[0,0.5,0],[0,0.75,0],[1,0.25,0],[1,0.5,0],[1,0.75,0]];outlineConnect=0;fontColor=#232F3E;gradientColor=#4D72F3;gradientDirection=north;fillColor=#3334B9;strokeColor=#ffffff;dashed=0;verticalLabelPosition=bottom;verticalAlign=top;align=center;html=1;fontSize=12;fontStyle=0;aspect=fixed;shape=mxgraph.aws4.resourceIcon;resIcon=mxgraph.aws4.dynamodb;labelBackgroundColor=#FFFFFF;" parent="1t7daK_UFqq9o-xPXAbw-50" vertex="1">
          <mxGeometry x="293.32053742802304" y="20" width="78" height="78" as="geometry" />
        </mxCell>
        <mxCell id="1t7daK_UFqq9o-xPXAbw-43" value="&lt;span style=&quot;font-size: 10px ; font-weight: bold&quot;&gt;AWS Secrets&lt;br&gt;Manager&lt;/span&gt;" style="sketch=0;points=[[0,0,0],[0.25,0,0],[0.5,0,0],[0.75,0,0],[1,0,0],[0,1,0],[0.25,1,0],[0.5,1,0],[0.75,1,0],[1,1,0],[0,0.25,0],[0,0.5,0],[0,0.75,0],[1,0.25,0],[1,0.5,0],[1,0.75,0]];outlineConnect=0;fontColor=#232F3E;gradientColor=#F54749;gradientDirection=north;fillColor=#C7131F;strokeColor=#ffffff;dashed=0;verticalLabelPosition=bottom;verticalAlign=top;align=center;html=1;fontSize=12;fontStyle=0;aspect=fixed;shape=mxgraph.aws4.resourceIcon;resIcon=mxgraph.aws4.secrets_manager;labelBackgroundColor=#FFFFFF;" parent="1t7daK_UFqq9o-xPXAbw-50" vertex="1">
          <mxGeometry x="417.6967370441459" y="20" width="78" height="78" as="geometry" />
        </mxCell>
        <mxCell id="1t7daK_UFqq9o-xPXAbw-49" value="&lt;span style=&quot;font-size: 10px ; font-weight: bold ; background-color: rgb(255 , 255 , 255)&quot;&gt;Amazon S3&lt;/span&gt;" style="sketch=0;points=[[0,0,0],[0.25,0,0],[0.5,0,0],[0.75,0,0],[1,0,0],[0,1,0],[0.25,1,0],[0.5,1,0],[0.75,1,0],[1,1,0],[0,0.25,0],[0,0.5,0],[0,0.75,0],[1,0.25,0],[1,0.5,0],[1,0.75,0]];outlineConnect=0;fontColor=#232F3E;gradientColor=#60A337;gradientDirection=north;fillColor=#277116;strokeColor=#ffffff;dashed=0;verticalLabelPosition=bottom;verticalAlign=top;align=center;html=1;fontSize=12;fontStyle=0;aspect=fixed;shape=mxgraph.aws4.resourceIcon;resIcon=mxgraph.aws4.s3;" parent="1t7daK_UFqq9o-xPXAbw-50" vertex="1">
          <mxGeometry x="41.45873320537428" y="20" width="78" height="78" as="geometry" />
        </mxCell>
        <mxCell id="1t7daK_UFqq9o-xPXAbw-51" value="" style="endArrow=classic;startArrow=classic;html=1;rounded=0;exitX=0.5;exitY=0;exitDx=0;exitDy=0;" parent="1" source="1t7daK_UFqq9o-xPXAbw-47" edge="1">
          <mxGeometry width="50" height="50" relative="1" as="geometry">
            <mxPoint x="441" y="410" as="sourcePoint" />
            <mxPoint x="240" y="360" as="targetPoint" />
          </mxGeometry>
        </mxCell>
        <mxCell id="1t7daK_UFqq9o-xPXAbw-52" value="" style="endArrow=classic;startArrow=classic;html=1;rounded=0;exitX=0.5;exitY=0;exitDx=0;exitDy=0;" parent="1" source="1t7daK_UFqq9o-xPXAbw-47" edge="1">
          <mxGeometry width="50" height="50" relative="1" as="geometry">
            <mxPoint x="265.9649999999999" y="428.03999999999996" as="sourcePoint" />
            <mxPoint x="340" y="360" as="targetPoint" />
          </mxGeometry>
        </mxCell>
        <mxCell id="1t7daK_UFqq9o-xPXAbw-53" value="" style="endArrow=classic;startArrow=classic;html=1;rounded=0;exitX=0.5;exitY=0;exitDx=0;exitDy=0;" parent="1" source="1t7daK_UFqq9o-xPXAbw-47" edge="1">
          <mxGeometry width="50" height="50" relative="1" as="geometry">
            <mxPoint x="441" y="410" as="sourcePoint" />
            <mxPoint x="480" y="360" as="targetPoint" />
          </mxGeometry>
        </mxCell>
        <mxCell id="1t7daK_UFqq9o-xPXAbw-54" value="" style="endArrow=classic;startArrow=classic;html=1;rounded=0;exitX=0.5;exitY=0;exitDx=0;exitDy=0;" parent="1" source="1t7daK_UFqq9o-xPXAbw-47" edge="1">
          <mxGeometry width="50" height="50" relative="1" as="geometry">
            <mxPoint x="441" y="410" as="sourcePoint" />
            <mxPoint x="580" y="360" as="targetPoint" />
          </mxGeometry>
        </mxCell>
      </root>
    </mxGraphModel>
  </diagram>
</mxfile>
